<?xml version="1.0" encoding="UTF-8"?>
<svg id="Capa_2" xmlns="http://www.w3.org/2000/svg" version="1.1" viewBox="0 0 226.8 14.8">
  <!-- Generator: Adobe Illustrator 29.0.0, SVG Export Plug-In . SVG Version: 2.1.0 Build 186)  -->
  <defs>
    <style>
      .st0 {
        fill-rule: evenodd;
      }
    </style>
  </defs>
  <g>
    <path d="M132.8,14.6v-.7h1.1v-6.5h-1.1v-.6h3.9c.4,0,.8,0,1.2.2.4.2.6.4.8.7.2.3.3.6.3,1h0c0,.5,0,.8-.2,1-.1.2-.3.4-.5.6-.2.1-.4.2-.6.3h0c.2.2.4.3.6.4.2.1.4.3.5.6.1.2.2.5.2.9h0c0,.5-.1.9-.3,1.2-.2.3-.5.5-.8.7-.4.2-.8.2-1.2.2h-3.9ZM134.7,10.3h2c.5,0,.9-.1,1.2-.4.3-.3.4-.6.4-1h0c0-.5-.1-.9-.4-1.1-.3-.3-.7-.4-1.2-.4h-2v2.9ZM134.7,13.9h2c.6,0,1-.1,1.3-.4.3-.3.4-.6.4-1.1h0c0-.5-.1-.9-.4-1.1-.3-.3-.7-.4-1.3-.4h-2v3Z"/>
    <path d="M140.8,14.6v-7.8h3.1c.5,0,.9,0,1.3.2s.7.4.9.7c.2.3.3.7.3,1.1h0c0,.6-.1,1.1-.4,1.4-.3.3-.6.5-.9.6h0c.3.1.5.2.7.4.2.2.3.4.3.8v2.7h-.7v-2.6c0-.2,0-.4-.2-.5s-.3-.2-.6-.2h-3v3.3h-.7ZM141.5,10.6h2.3c.6,0,1-.1,1.4-.4.3-.3.5-.7.5-1.2h0c0-.6-.2-1-.5-1.2-.3-.3-.8-.4-1.4-.4h-2.3v3.2Z"/>
    <path d="M147.3,14.6l2.6-7.8h1.3l2.6,7.8h-.8l-.7-2.1h-3.6l-.7,2.1h-.8ZM148.9,11.9h3.2l-1.5-4.7h-.1l-1.5,4.7Z"/>
    <path d="M155.1,14.6v-7.8h1.4l3.2,7.4h.1v-7.4h.7v7.8h-1.4l-3.2-7.4h-.1v7.4h-.7Z"/>
    <path d="M162.2,14.6v-.7h1.1v-6.5h-1.1v-.6h3c1,0,1.8.3,2.4.8.6.5.9,1.3.9,2.4v1.4c0,1.1-.3,1.9-.9,2.4-.6.5-1.4.8-2.4.8h-3ZM164,13.9h1.1c.8,0,1.4-.2,1.9-.6.4-.4.6-1,.6-1.9v-1.5c0-.9-.2-1.5-.6-1.9-.4-.4-1.1-.6-1.9-.6h-1.1v6.5Z"/>
    <path d="M173.2,14.6v-7.8h2.9c.5,0,.9,0,1.2.3.4.2.7.4.9.8.2.3.3.7.3,1.2h0c0,.6-.1,1-.3,1.3-.2.3-.5.6-.9.8-.4.2-.8.3-1.2.3h-2.2v3.3h-.7ZM173.9,10.7h2.1c.6,0,1-.1,1.3-.4.3-.3.5-.7.5-1.2h0c0-.6-.2-1-.5-1.3s-.8-.4-1.3-.4h-2.1v3.3Z"/>
    <path d="M178.7,14.6l2.6-7.8h1.3l2.6,7.8h-.8l-.7-2.1h-3.6l-.7,2.1h-.8ZM180.3,11.9h3.2l-1.5-4.7h-.1l-1.5,4.7Z"/>
    <path d="M186.5,14.6v-7.8h3.1c.5,0,.9,0,1.3.2s.7.4.9.7c.2.3.3.7.3,1.1h0c0,.6-.1,1.1-.4,1.4-.3.3-.6.5-.9.6h0c.3.1.5.2.7.4.2.2.3.4.3.8v2.7h-.7v-2.6c0-.2,0-.4-.2-.5s-.3-.2-.6-.2h-3v3.3h-.7ZM187.2,10.6h2.3c.6,0,1-.1,1.4-.4.3-.3.5-.7.5-1.2h0c0-.6-.2-1-.5-1.2-.3-.3-.8-.4-1.4-.4h-2.3v3.2Z"/>
    <path d="M195.6,14.6v-7.2h-2.6v-.6h6v.6h-2.6v7.2h-.7Z"/>
    <path d="M200.3,14.6v-7.8h1.4l3.2,7.4h.1v-7.4h.7v7.8h-1.4l-3.2-7.4h-.1v7.4h-.7Z"/>
    <path d="M207.8,14.6v-7.8h4.7v.6h-4v2.9h3.7v.7h-3.7v3h4.1v.7h-4.8Z"/>
    <path d="M214.3,14.6v-7.8h3.1c.5,0,.9,0,1.3.2s.7.4.9.7c.2.3.3.7.3,1.1h0c0,.6-.1,1.1-.4,1.4-.3.3-.6.5-.9.6h0c.3.1.5.2.7.4.2.2.3.4.3.8v2.7h-.7v-2.6c0-.2,0-.4-.2-.5s-.3-.2-.6-.2h-3v3.3h-.7ZM215,10.6h2.3c.6,0,1-.1,1.4-.4.3-.3.5-.7.5-1.2h0c0-.6-.2-1-.5-1.2-.3-.3-.8-.4-1.4-.4h-2.3v3.2Z"/>
    <path d="M224,14.8c-.6,0-1.1,0-1.5-.3-.4-.2-.8-.5-1-.9s-.4-.9-.4-1.6v-.2h.7v.2c0,.7.2,1.3.6,1.6.4.3.9.5,1.6.5s1.2-.2,1.5-.5c.4-.3.5-.7.5-1.2s0-.6-.2-.8c-.2-.2-.4-.3-.6-.5-.3-.1-.6-.2-.9-.3l-.7-.2c-.4-.1-.8-.3-1.1-.4-.3-.2-.6-.4-.8-.7-.2-.3-.3-.6-.3-1s.1-.8.3-1.1c.2-.3.5-.6.9-.7.4-.2.8-.3,1.4-.3s1,0,1.4.3c.4.2.7.4,1,.8s.4.8.4,1.3v.5h-.7v-.5c0-.4,0-.7-.3-1-.2-.3-.4-.4-.7-.6-.3-.1-.7-.2-1-.2-.5,0-1,.1-1.4.4-.4.3-.5.6-.5,1.1s0,.6.2.8c.1.2.4.3.6.4s.6.2.9.3l.7.2c.4,0,.8.2,1.1.4.3.2.6.4.8.7.2.3.3.6.3,1.1s-.1.9-.3,1.2c-.2.3-.5.6-1,.8-.4.2-.9.3-1.4.3Z"/>
  </g>
  <g>
    <path class="st0" d="M62.1,14.8h2.1l-7.3-7.3,3.4-2c2.6-1.5,1.6-5.5-1.4-5.5h-8.1c-1.4,0-2.5,1.1-2.5,2.5v12.3h.8c.5,0,.8-.4.8-.8v-2.4l5.5-3.2,6.2,6.2c.2.2.4.2.6.2M59.4,4.1c1.1-.7.7-2.4-.6-2.4h-8.1c-.4,0-.8.4-.8.8v7.1c3.2-1.8,6.4-3.7,9.5-5.5Z"/>
    <path d="M1.7,9.6l7.1-4.1c0,0,.1,0,.2-.1l2.2-1.3c.3-.2.5-.5.6-.8,0-.2,0-.5,0-.7,0-.2-.2-.4-.3-.6-.2-.2-.5-.3-.9-.3H2.5c-.2,0-.4,0-.6.2-.1.1-.2.3-.2.6v7.1ZM9.3,7.2L1.7,11.6v1.3s0,0,0,0c0,0,0,0,0,0h9.2c.7,0,1.2-.3,1.5-.7.1-.2.3-.4.3-.6,0-.2.1-.5.1-.7,0-.5-.2-.9-.6-1.2l-3.1-2.4ZM2.5,0h8.1C11.5,0,12.2.3,12.7.8c.4.4.7.9.8,1.4.1.5.1,1.1,0,1.6-.2.7-.6,1.3-1.4,1.8l-1.2.7,2.6,2c.8.6,1.2,1.6,1.2,2.6s0,.8-.2,1.3c-.1.4-.3.8-.6,1.1-.6.8-1.6,1.4-2.8,1.4H1.7c-.5,0-.9-.2-1.2-.5h0c-.3-.3-.5-.7-.5-1.2V2.5c0-.7.3-1.3.7-1.8C1.2.3,1.8,0,2.5,0Z"/>
    <path d="M35.1,8.2l-2.9-6c0-.2-.2-.3-.3-.4-.1,0-.3-.1-.5-.1h0s-1.2,0-1.2,0h0c-.2,0-.4,0-.5.1-.1,0-.3.2-.3.4l-2.9,6h8.6ZM21.5,14.8l.6-1.2h0s.3-.7.3-.7l.2-.5h0L27.9,1.5c.2-.4.6-.8,1-1.1.4-.3.9-.4,1.4-.4h0s1.2,0,1.2,0h0c.5,0,1,.1,1.4.4.4.3.8.6,1,1.1l5.8,12.1s0,0,0,.1l.5,1.1h-1.3c-.3,0-.6-.2-.8-.5l-2.2-4.5c0,0-.2,0-.3,0h-9.6c0,0-.1,0-.2,0l-2.1,4.5c-.1.3-.5.5-.8.5h-1.3Z"/>
    <path d="M83.9,14.6v-.8c0-.5-.4-.8-.8-.8h-7c-.9,0-1.8-.4-2.4-1-.6-.6-1-1.5-1-2.4s0,0,0,0v-3.7s0,0,0,0c0-1.1.4-2.1,1.2-2.8.7-.7,1.7-1.2,2.8-1.2h0s5.4,0,5.4,0c.5,0,.8-.4.8-.8v-.8h-6.2c-1.5,0-3,.6-4,1.7-1,1-1.7,2.4-1.7,4s0,0,0,0v3.7s0,0,0,0c0,1.4.6,2.7,1.5,3.6.9.9,2.2,1.5,3.6,1.5h7.9"/>
    <path d="M100,14.6h-3.9c-1.4,0-2.7-.6-3.6-1.5-.9-.9-1.5-2.2-1.5-3.6h0v-3.9h0c0-1.6.6-3,1.7-4,1-1,2.4-1.7,4-1.7h3.9c1.4,0,2.7.6,3.6,1.5.9.9,1.5,2.2,1.5,3.6h0v3.9h0c0,1.6-.6,3-1.7,4-1,1-2.4,1.7-4,1.7M96.6,1.7c-1.1,0-2.1.4-2.8,1.2-.7.7-1.2,1.7-1.2,2.8h0v3.9h0c0,.9.4,1.8,1,2.4.6.6,1.5,1,2.4,1h3.9c1.1,0,2.1-.4,2.8-1.2.7-.7,1.2-1.7,1.2-2.8h0v-3.9h0c0-.9-.4-1.8-1-2.4-.6-.6-1.5-1-2.4-1h-3.9Z"/>
  </g>
</svg>